<svg width="10.000000" height="10.000000" viewBox="0 0 10 10" fill="none" xmlns="http://www.w3.org/2000/svg" xmlns:xlink="http://www.w3.org/1999/xlink">
	<desc>
			Created with Pixso.
	</desc>
	<defs/>
	<path id="Union" d="M1.28 0.21C0.98 -0.08 0.51 -0.08 0.21 0.21C-0.08 0.51 -0.08 0.98 0.21 1.28L3.93 5L0.21 8.71C-0.08 9.01 -0.08 9.48 0.21 9.78C0.51 10.07 0.98 10.07 1.28 9.78L5 6.06L8.71 9.78C9.01 10.07 9.48 10.07 9.78 9.78C10.07 9.48 10.07 9.01 9.78 8.71L6.06 5L9.78 1.28C10.07 0.98 10.07 0.51 9.78 0.21C9.48 -0.08 9.01 -0.08 8.71 0.21L5 3.93L1.28 0.21Z" fill="#262626" fill-opacity="1.000000" fill-rule="nonzero"/>
</svg>
