<svg width="52.000000" height="52.000000" viewBox="0 0 52 52" fill="none" xmlns="http://www.w3.org/2000/svg" xmlns:xlink="http://www.w3.org/1999/xlink">
	<desc>
			Created with Pixso.
	</desc>
	<defs>
		<clipPath id="clip41_300">
			<rect id="Icon" rx="0.000000" width="22.666666" height="22.666666" transform="translate(14.666667 14.666667)" fill="white" fill-opacity="0"/>
		</clipPath>
	</defs>
	<rect id="Button" rx="7.500000" width="51.000000" height="51.000000" transform="translate(0.500000 0.500000)" fill="#F7F7F8" fill-opacity="1.000000"/>
	<g clip-path="url(#clip41_300)">
		<path id="Vector (Stroke)" d="M15.5 18.5C15.5 16.84 16.84 15.5 18.5 15.5L19.87 15.5C20.73 15.5 21.48 16.08 21.68 16.92L22.79 21.34C22.97 22.07 22.7 22.84 22.1 23.29L20.81 24.26C20.67 24.36 20.64 24.51 20.67 24.61C21.82 27.71 24.28 30.18 27.38 31.31C27.48 31.35 27.63 31.32 27.73 31.19L28.7 29.89C29.15 29.29 29.92 29.02 30.65 29.2L35.07 30.3C35.91 30.51 36.5 31.26 36.5 32.12L36.5 33.5C36.5 35.15 35.15 36.5 33.5 36.5L31.25 36.5C22.55 36.5 15.5 29.44 15.5 20.75L15.5 18.5Z" fill="#262626" fill-opacity="1.000000" fill-rule="evenodd"/>
	</g>
	<rect id="Button" rx="7.500000" width="51.000000" height="51.000000" transform="translate(0.500000 0.500000)" stroke="#F1F1F3" stroke-opacity="1.000000" stroke-width="1.000000"/>
</svg>
