<svg width="52.000000" height="52.000000" viewBox="0 0 52 52" fill="none" xmlns="http://www.w3.org/2000/svg" xmlns:xlink="http://www.w3.org/1999/xlink">
	<desc>
			Created with Pixso.
	</desc>
	<defs>
		<clipPath id="clip41_280">
			<rect id="Icon" rx="0.000000" width="23.000000" height="23.000000" transform="translate(14.500000 14.500000)" fill="white" fill-opacity="0"/>
		</clipPath>
	</defs>
	<rect id="Button" rx="7.500000" width="51.000000" height="51.000000" transform="translate(0.500000 0.500000)" fill="#F7F7F8" fill-opacity="1.000000"/>
	<rect id="Icon" rx="0.000000" width="23.000000" height="23.000000" transform="translate(14.500000 14.500000)" fill="#FFFFFF" fill-opacity="0"/>
	<g clip-path="url(#clip41_280)">
		<path id="Vector" d="M38 26C38 19.37 32.62 14 26 14C19.37 14 14 19.37 14 26C14 31.98 18.39 36.95 24.12 37.85L24.12 29.46L21.07 29.46L21.07 26L24.12 26L24.12 23.35C24.12 20.34 25.91 18.68 28.65 18.68C29.96 18.68 31.34 18.92 31.34 18.92L31.34 21.87L29.82 21.87C28.34 21.87 27.87 22.8 27.87 23.75L27.87 26L31.2 26L30.67 29.46L27.87 29.46L27.87 37.85C33.6 36.95 38 31.98 38 26Z" fill="#333333" fill-opacity="1.000000" fill-rule="nonzero"/>
	</g>
	<rect id="Button" rx="7.500000" width="51.000000" height="51.000000" transform="translate(0.500000 0.500000)" stroke="#F1F1F3" stroke-opacity="1.000000" stroke-width="1.000000"/>
</svg>
