<svg width="30.000000" height="30.000000" viewBox="0 0 30 30" fill="none" xmlns="http://www.w3.org/2000/svg" xmlns:xlink="http://www.w3.org/1999/xlink">
	<desc>
			Created with Pixso.
	</desc>
	<defs>
		<clipPath id="clip38_3002">
			<rect id="Icon" rx="0.000000" width="29.500000" height="29.500000" transform="translate(0.250000 0.250000)" fill="white" fill-opacity="0"/>
		</clipPath>
	</defs>
	<rect id="Icon" rx="0.000000" width="29.500000" height="29.500000" transform="translate(0.250000 0.250000)" fill="#FFFFFF" fill-opacity="0"/>
	<g clip-path="url(#clip38_3002)">
		<path id="Vector" d="M29.7 15.34C29.7 14.32 29.62 13.3 29.44 12.29L15.3 12.29L15.3 18.07L23.4 18.07C23.06 19.93 21.98 21.58 20.4 22.63L20.4 26.37L25.23 26.37C28.07 23.76 29.7 19.9 29.7 15.34Z" fill="#4285F4" fill-opacity="1.000000" fill-rule="nonzero"/>
		<path id="Vector" d="M15.3 30C19.34 30 22.75 28.67 25.24 26.37L20.41 22.63C19.06 23.54 17.32 24.06 15.3 24.06C11.39 24.06 8.07 21.42 6.88 17.87L1.89 17.87L1.89 21.73C4.44 26.8 9.62 30 15.3 30Z" fill="#34A853" fill-opacity="1.000000" fill-rule="nonzero"/>
		<path id="Vector" d="M6.87 17.87C6.25 16.01 6.25 13.99 6.87 12.13L6.87 8.26L1.89 8.26C-0.24 12.5 -0.24 17.5 1.89 21.73L6.87 17.87Z" fill="#FBBC04" fill-opacity="1.000000" fill-rule="nonzero"/>
		<path id="Vector" d="M15.3 5.93C17.43 5.9 19.5 6.7 21.05 8.18L25.33 3.9C22.62 1.35 19.02 -0.05 15.3 0C9.62 0 4.44 3.19 1.89 8.26L6.87 12.13C8.06 8.57 11.38 5.93 15.3 5.93Z" fill="#EA4335" fill-opacity="1.000000" fill-rule="nonzero"/>
	</g>
</svg>
