<svg width="17.000000" height="13.600037" viewBox="0 0 17 13.6" fill="none" xmlns="http://www.w3.org/2000/svg" xmlns:xlink="http://www.w3.org/1999/xlink">
	<desc>
			Created with Pixso.
	</desc>
	<defs/>
	<path id="Vector (Stroke)" d="M0 6.79C0 6.09 0.57 5.52 1.27 5.52L12.55 5.52L8.89 2.19C8.38 1.7 8.36 0.89 8.85 0.39C9.34 -0.12 10.15 -0.14 10.66 0.35L16.6 5.88C16.85 6.12 17 6.45 17 6.79C17 7.14 16.85 7.47 16.6 7.71L10.66 13.24C10.15 13.73 9.34 13.71 8.85 13.2C8.36 12.7 8.38 11.89 8.89 11.4L12.55 8.07L1.27 8.07C0.57 8.07 0 7.5 0 6.79Z" fill="#262626" fill-opacity="1.000000" fill-rule="evenodd"/>
</svg>
