<svg width="17.000000" height="13.600037" viewBox="0 0 17 13.6" fill="none" xmlns="http://www.w3.org/2000/svg" xmlns:xlink="http://www.w3.org/1999/xlink">
	<desc>
			Created with Pixso.
	</desc>
	<defs/>
	<path id="Vector (Stroke)" d="M17 6.79C17 7.5 16.42 8.07 15.72 8.07L4.44 8.07L8.1 11.4C8.61 11.89 8.63 12.7 8.14 13.2C7.65 13.71 6.84 13.73 6.33 13.24L0.39 7.71C0.14 7.47 0 7.14 0 6.79C0 6.45 0.14 6.12 0.39 5.88L6.33 0.35C6.84 -0.14 7.65 -0.12 8.14 0.39C8.63 0.89 8.61 1.7 8.1 2.19L4.44 5.52L15.72 5.52C16.42 5.52 17 6.09 17 6.79Z" fill="#262626" fill-opacity="1.000000" fill-rule="evenodd"/>
</svg>
