<svg width="66.000000" height="66.000000" viewBox="0 0 66 66" fill="none" xmlns="http://www.w3.org/2000/svg" xmlns:xlink="http://www.w3.org/1999/xlink">
	<desc>
			Created with Pixso.
	</desc>
	<defs>
		<clipPath id="clip148_2899">
			<rect id="Objects &amp; Tools" rx="0.000000" width="33.000000" height="33.000000" transform="translate(16.500000 16.500000)" fill="white" fill-opacity="0"/>
		</clipPath>
		<clipPath id="clip93_390">
			<rect id="Icon Container" rx="7.500000" width="65.000000" height="65.000000" transform="translate(0.500000 0.500000)" fill="white" fill-opacity="0"/>
		</clipPath>
	</defs>
	<rect id="Icon Container" rx="7.500000" width="65.000000" height="65.000000" transform="translate(0.500000 0.500000)" fill="#FFF9F0" fill-opacity="1.000000"/>
	<g clip-path="url(#clip93_390)">
		<g clip-path="url(#clip148_2899)">
			<rect id="crown.fill" rx="0.000000" width="33.000000" height="26.928572" transform="translate(16.500000 20.142822)" fill="#FFFFFF" fill-opacity="0"/>
			<g opacity="0.000000">
				<path id="Vector" d="M16 19.64L50 19.64L50 47.57L16 47.57L16 19.64Z" fill="#FF9500" fill-opacity="1.000000" fill-rule="evenodd"/>
			</g>
			<path id="Vector" d="M21.67 41.09L22.07 42.7C22.57 44.79 23.67 45.86 25.86 45.86L40.13 45.86C42.33 45.86 43.42 44.82 43.94 42.7L44.33 41.09L21.67 41.09ZM21.23 39.25L44.78 39.25L47.28 28.93L46.19 28.3L40.08 32.8C39.63 33.13 39.32 33.01 39.07 32.64L33.32 23.85L32.68 23.82L26.88 32.68C26.65 33.03 26.39 33.14 25.94 32.82L19.94 28.39L18.67 28.73L21.23 39.25ZM19.16 31.61C20.91 31.61 22.32 30.18 22.32 28.39C22.32 26.65 20.91 25.2 19.16 25.2C17.41 25.2 16 26.64 16 28.39C16 30.18 17.42 31.61 19.16 31.61ZM33 26.03C34.74 26.03 36.16 24.6 36.16 22.83C36.16 21.09 34.74 19.64 33 19.64C31.24 19.64 29.83 21.07 29.83 22.83C29.83 24.6 31.25 26.03 33 26.03ZM46.83 31.61C48.57 31.61 50 30.18 50 28.39C50 26.64 48.58 25.2 46.83 25.2C45.09 25.2 43.67 26.65 43.67 28.39C43.67 30.18 45.09 31.61 46.83 31.61Z" fill="#FF9500" fill-opacity="1.000000" fill-rule="nonzero"/>
		</g>
	</g>
	<rect id="Icon Container" rx="7.500000" width="65.000000" height="65.000000" transform="translate(0.500000 0.500000)" stroke="#FFEACC" stroke-opacity="1.000000" stroke-width="1.000000"/>
</svg>
