<svg width="66.000000" height="66.000000" viewBox="0 0 66 66" fill="none" xmlns="http://www.w3.org/2000/svg" xmlns:xlink="http://www.w3.org/1999/xlink">
	<desc>
			Created with Pixso.
	</desc>
	<defs>
		<clipPath id="clip148_2925">
			<rect id="Objects &amp; Tools" rx="0.000000" width="33.000000" height="33.000000" transform="translate(16.500000 16.500000)" fill="white" fill-opacity="0"/>
		</clipPath>
		<clipPath id="clip93_426">
			<rect id="Icon Container" rx="7.500000" width="65.000000" height="65.000000" transform="translate(0.500000 0.500000)" fill="white" fill-opacity="0"/>
		</clipPath>
	</defs>
	<rect id="Icon Container" rx="7.500000" width="65.000000" height="65.000000" transform="translate(0.500000 0.500000)" fill="#FFF9F0" fill-opacity="1.000000"/>
	<g clip-path="url(#clip93_426)">
		<g clip-path="url(#clip148_2925)">
			<rect id="theatermasks.fill" rx="0.000000" width="32.000000" height="22.000000" transform="translate(17.500000 22.500000)" fill="#FFFFFF" fill-opacity="0"/>
			<g opacity="0.000000">
				<path id="Vector" d="M17 22L50 22L50 45L17 45L17 22Z" fill="#FF9500" fill-opacity="1.000000" fill-rule="evenodd"/>
			</g>
			<path id="Vector" d="M28.79 41.46C33.61 40.13 35.67 36.32 34.32 31.19L32.49 24.21C31.99 22.33 30.78 21.65 28.91 22.15L19.22 24.78C17.35 25.29 16.65 26.49 17.15 28.4L18.97 35.37C20.31 40.5 23.97 42.77 28.79 41.46ZM27.87 37.89C25.83 38.43 23.85 37.72 22.8 36.02C22.6 35.71 22.77 35.4 23.16 35.43C24.46 35.54 26.01 35.31 27.12 35.01C28.21 34.72 29.64 34.14 30.73 33.37C31.05 33.13 31.37 33.3 31.35 33.71C31.28 35.7 29.92 37.31 27.87 37.89ZM22.95 31.34C22.21 31.55 22.12 32.04 21.8 32.09C21.66 32.12 21.48 31.95 21.39 31.67C21.16 30.82 21.69 29.91 22.53 29.7C23.38 29.49 24.25 30 24.46 30.82C24.55 31.12 24.47 31.35 24.32 31.41C23.95 31.54 23.61 31.16 22.95 31.34ZM28.91 29.69C28.17 29.91 28.08 30.4 27.76 30.44C27.62 30.47 27.44 30.3 27.35 30.02C27.12 29.18 27.65 28.27 28.49 28.06C29.35 27.83 30.21 28.35 30.42 29.17C30.51 29.48 30.43 29.7 30.28 29.76C29.92 29.89 29.57 29.5 28.91 29.69ZM47.75 27.36L38.08 24.72C36.36 24.25 35.14 24.77 34.65 26.32L34.53 26.75L35.6 30.84C36.68 34.92 35.8 38.37 33.3 40.6C34.26 42.21 35.96 43.42 38.21 44.03C43 45.34 46.65 43.06 48 37.94L49.85 30.98C50.33 29.09 49.63 27.87 47.75 27.36ZM37.9 33.4C37.23 33.23 36.83 32.53 37.01 31.83C37.2 31.14 37.88 30.73 38.56 30.92C39.23 31.11 39.63 31.81 39.46 32.5C39.27 33.19 38.58 33.59 37.9 33.4ZM43.64 34.97C42.98 34.79 42.57 34.08 42.76 33.38C42.94 32.69 43.62 32.29 44.29 32.48C44.98 32.65 45.37 33.36 45.19 34.06C45.01 34.75 44.32 35.16 43.64 34.97ZM39.52 38.79C38.51 38.51 37.53 38.5 36.28 38.77C35.89 38.86 35.65 38.54 35.86 38.21C36.7 36.86 38.4 36.3 40.05 36.77C41.76 37.21 42.92 38.55 42.98 40.14C43 40.54 42.64 40.71 42.35 40.44C41.38 39.54 40.55 39.06 39.52 38.79Z" fill="#FF9500" fill-opacity="1.000000" fill-rule="nonzero"/>
		</g>
	</g>
	<rect id="Icon Container" rx="7.500000" width="65.000000" height="65.000000" transform="translate(0.500000 0.500000)" stroke="#FFEACC" stroke-opacity="1.000000" stroke-width="1.000000"/>
</svg>
