<svg width="66.000000" height="66.000000" viewBox="0 0 66 66" fill="none" xmlns="http://www.w3.org/2000/svg" xmlns:xlink="http://www.w3.org/1999/xlink">
	<desc>
			Created with Pixso.
	</desc>
	<defs>
		<clipPath id="clip93_432">
			<rect id="Icon Container" rx="7.500000" width="65.000000" height="65.000000" transform="translate(0.500000 0.500000)" fill="white" fill-opacity="0"/>
		</clipPath>
	</defs>
	<rect id="Icon Container" rx="7.500000" width="65.000000" height="65.000000" transform="translate(0.500000 0.500000)" fill="#FFF9F0" fill-opacity="1.000000"/>
	<g clip-path="url(#clip93_432)">
		<rect id="bolt.shield.fill" rx="0.000000" width="22.280165" height="27.730244" transform="translate(21.355469 18.928589)" fill="#FFFFFF" fill-opacity="0"/>
		<g opacity="0.000000">
			<path id="Vector" d="M20.85 18.42L44.13 18.42L44.13 47.15L20.85 47.15L20.85 18.42Z" fill="#FF9500" fill-opacity="1.000000" fill-rule="evenodd"/>
		</g>
		<path id="Vector" d="M32.49 47.15C32.72 47.15 33.07 47.07 33.43 46.88C41.53 42.64 44.13 40.52 44.13 35.41L44.13 24.68C44.13 23.22 43.5 22.75 42.31 22.25C40.64 21.57 35.32 19.63 33.67 19.06C33.29 18.94 32.89 18.86 32.49 18.86C32.09 18.86 31.69 18.95 31.32 19.06C29.66 19.6 24.33 21.58 22.67 22.25C21.49 22.74 20.85 23.22 20.85 24.68L20.85 35.41C20.85 40.52 23.6 42.4 31.55 46.88C31.92 47.08 32.26 47.15 32.49 47.15ZM26.07 33.48C26.07 33.31 26.16 33.09 26.32 32.91L34.35 22.82C34.97 22.05 35.99 22.56 35.62 23.52L32.98 30.63L37.94 30.63C38.32 30.63 38.61 30.9 38.61 31.29C38.61 31.46 38.52 31.67 38.37 31.86L30.33 41.95C29.71 42.71 28.71 42.2 29.06 41.26L31.72 34.13L26.74 34.13C26.37 34.13 26.07 33.86 26.07 33.48Z" fill="#FF9500" fill-opacity="1.000000" fill-rule="nonzero"/>
	</g>
	<rect id="Icon Container" rx="7.500000" width="65.000000" height="65.000000" transform="translate(0.500000 0.500000)" stroke="#FFEACC" stroke-opacity="1.000000" stroke-width="1.000000"/>
</svg>
