<svg width="66.000000" height="66.000000" viewBox="0 0 66 66" fill="none" xmlns="http://www.w3.org/2000/svg" xmlns:xlink="http://www.w3.org/1999/xlink">
	<desc>
			Created with Pixso.
	</desc>
	<defs>
		<clipPath id="clip95_478">
			<rect id="Icon Container" rx="7.500000" width="65.000000" height="65.000000" transform="translate(0.500000 0.500000)" fill="white" fill-opacity="0"/>
		</clipPath>
	</defs>
	<rect id="Icon Container" rx="7.500000" width="65.000000" height="65.000000" transform="translate(0.500000 0.500000)" fill="#FFF9F0" fill-opacity="1.000000"/>
	<g clip-path="url(#clip95_478)">
		<rect id="puzzlepiece.fill" rx="0.000000" width="33.000000" height="22.071428" transform="translate(16.500000 22.571289)" fill="#FFFFFF" fill-opacity="0"/>
		<g opacity="0.000000">
			<path id="Vector" d="M16 22.07L50 22.07L50 45.14L16 45.14L16 22.07Z" fill="#FF9500" fill-opacity="1.000000" fill-rule="evenodd"/>
		</g>
		<path id="Vector" d="M16 33.58C16 36.02 17.69 37.36 19.59 37.36C20.39 37.36 20.98 37.14 21.7 36.68C22.37 36.26 22.85 36.51 22.85 37.1L22.85 41.53C22.85 43.88 24.07 45.09 26.41 45.09L29.54 45.09C30.11 45.09 30.35 44.61 29.96 43.93C29.5 43.2 29.27 42.59 29.27 41.78C29.27 39.84 30.6 38.12 33 38.12C35.39 38.12 36.71 39.84 36.71 41.78C36.71 42.59 36.48 43.2 36.03 43.93C35.64 44.61 35.87 45.09 36.45 45.09L39.58 45.09C41.92 45.09 43.14 43.88 43.14 41.53L43.14 37.1C43.14 36.51 43.62 36.26 44.28 36.68C45.01 37.14 45.6 37.36 46.39 37.36C48.3 37.36 50 36.02 50 33.58C50 31.13 48.3 29.79 46.39 29.79C45.6 29.79 45.01 30.02 44.28 30.47C43.62 30.89 43.14 30.64 43.14 30.06L43.14 25.63C43.14 23.29 41.92 22.07 39.58 22.07L36.45 22.07C35.87 22.07 35.64 22.56 36.03 23.24C36.48 23.97 36.71 24.58 36.71 25.39C36.71 27.33 35.39 29.05 33 29.05C30.6 29.05 29.27 27.33 29.27 25.39C29.27 24.58 29.5 23.97 29.96 23.24C30.35 22.56 30.11 22.07 29.54 22.07L26.41 22.07C24.07 22.07 22.85 23.29 22.85 25.63L22.85 30.06C22.85 30.64 22.37 30.89 21.7 30.47C20.98 30.02 20.39 29.79 19.59 29.79C17.69 29.79 16 31.13 16 33.58Z" fill="#FF9500" fill-opacity="1.000000" fill-rule="nonzero"/>
	</g>
	<rect id="Icon Container" rx="7.500000" width="65.000000" height="65.000000" transform="translate(0.500000 0.500000)" stroke="#FFEACC" stroke-opacity="1.000000" stroke-width="1.000000"/>
</svg>
