<svg width="66.000000" height="66.000000" viewBox="0 0 66 66" fill="none" xmlns="http://www.w3.org/2000/svg" xmlns:xlink="http://www.w3.org/1999/xlink">
	<desc>
			Created with Pixso.
	</desc>
	<defs>
		<clipPath id="clip95_485">
			<rect id="Icon Container" rx="7.500000" width="65.000000" height="65.000000" transform="translate(0.500000 0.500000)" fill="white" fill-opacity="0"/>
		</clipPath>
	</defs>
	<rect id="Icon Container" rx="7.500000" width="65.000000" height="65.000000" transform="translate(0.500000 0.500000)" fill="#FFF9F0" fill-opacity="1.000000"/>
	<g clip-path="url(#clip95_485)">
		<rect id="light.beacon.max.fill" rx="0.000000" width="32.682220" height="31.344563" transform="translate(16.500000 17.714355)" fill="#FFFFFF" fill-opacity="0"/>
		<g opacity="0.000000">
			<path id="Vector" d="M16 17.21L49.68 17.21L49.68 49.55L16 49.55L16 17.21Z" fill="#FF9500" fill-opacity="1.000000" fill-rule="evenodd"/>
		</g>
		<path id="Vector" d="M43.76 46C44.4 46 44.92 45.48 44.92 44.86C44.92 44.22 44.4 43.69 43.76 43.69L42.02 43.69L42.02 34.26C42.02 29.06 38.02 25.05 32.83 25.05C27.65 25.05 23.65 29.06 23.65 34.26L23.65 43.69L21.89 43.69C21.26 43.69 20.76 44.22 20.76 44.86C20.76 45.48 21.26 46 21.89 46L43.76 46ZM34.03 34.3L34.03 43.69L31.66 43.69L31.66 34.3C31.66 33.64 32.17 33.1 32.83 33.1C33.48 33.1 34.03 33.64 34.03 34.3ZM19.94 35.28C20.6 35.28 21.19 34.73 21.19 34.07C21.19 33.39 20.6 32.83 19.94 32.83L17.21 32.83C16.55 32.83 16 33.4 16 34.07C16 34.71 16.55 35.28 17.21 35.28L19.94 35.28ZM22.85 25.82C23.32 26.29 24.1 26.3 24.58 25.82C25.06 25.33 25.05 24.57 24.58 24.1L22.66 22.16C22.2 21.68 21.4 21.68 20.92 22.16C20.45 22.65 20.45 23.4 20.92 23.88L22.85 25.82ZM31.6 21.18C31.6 21.85 32.16 22.42 32.83 22.42C33.51 22.42 34.07 21.85 34.07 21.18L34.07 18.45C34.07 17.78 33.5 17.21 32.83 17.21C32.16 17.21 31.6 17.78 31.6 18.45L31.6 21.18ZM41.07 24.1C40.6 24.57 40.58 25.33 41.07 25.82C41.57 26.3 42.32 26.29 42.79 25.82L44.74 23.88C45.21 23.4 45.21 22.65 44.74 22.16C44.24 21.68 43.49 21.68 43.02 22.16L41.07 24.1ZM48.44 35.28C49.11 35.28 49.68 34.71 49.68 34.07C49.68 33.4 49.11 32.83 48.44 32.83L45.71 32.83C45.05 32.83 44.48 33.39 44.48 34.07C44.48 34.73 45.05 35.28 45.71 35.28L48.44 35.28Z" fill="#FF9500" fill-opacity="1.000000" fill-rule="nonzero"/>
	</g>
	<rect id="Icon Container" rx="7.500000" width="65.000000" height="65.000000" transform="translate(0.500000 0.500000)" stroke="#FFEACC" stroke-opacity="1.000000" stroke-width="1.000000"/>
</svg>
