<svg width="66.000000" height="66.000000" viewBox="0 0 66 66" fill="none" xmlns="http://www.w3.org/2000/svg" xmlns:xlink="http://www.w3.org/1999/xlink">
	<desc>
			Created with Pixso.
	</desc>
	<defs>
		<clipPath id="clip95_463">
			<rect id="Icon Container" rx="7.500000" width="65.000000" height="65.000000" transform="translate(0.500000 0.500000)" fill="white" fill-opacity="0"/>
		</clipPath>
	</defs>
	<rect id="Icon Container" rx="7.500000" width="65.000000" height="65.000000" transform="translate(0.500000 0.500000)" fill="#FFF9F0" fill-opacity="1.000000"/>
	<g clip-path="url(#clip95_463)">
		<rect id="backpack.fill" rx="0.000000" width="20.857143" height="34.214287" transform="translate(22.570312 16.500000)" fill="#FFFFFF" fill-opacity="0"/>
		<g opacity="0.000000">
			<path id="Vector" d="M22.07 16L43.92 16L43.92 51.21L22.07 51.21L22.07 16Z" fill="#FF9500" fill-opacity="1.000000" fill-rule="evenodd"/>
		</g>
		<path id="Vector" d="M28.94 49.82L37.05 49.82C41.67 49.82 43.96 47.45 43.92 42.7C43.87 37.28 43.84 33.34 43.71 30.39C43.32 21.7 40.92 19.15 33 19.15C25.08 19.15 22.66 21.7 22.28 30.39C22.15 33.34 22.12 37.28 22.07 42.7C22.03 47.45 24.31 49.82 28.94 49.82ZM28.55 44.47C27.41 44.47 26.67 43.71 26.67 42.58L26.67 35.62C26.67 34.47 27.41 33.72 28.55 33.72L37.45 33.72C38.58 33.72 39.31 34.47 39.31 35.62L39.31 42.58C39.31 43.71 38.58 44.47 37.45 44.47L28.55 44.47ZM26.67 38.91L39.31 38.91L39.31 37.3L26.67 37.3L26.67 38.91ZM33 16C30.45 16 28.66 17.75 28.66 20.14L30.53 20.14C30.53 18.83 31.54 17.9 33 17.9C34.45 17.9 35.47 18.83 35.47 20.14L37.35 20.14C37.35 17.75 35.54 16 33 16Z" fill="#FF9500" fill-opacity="1.000000" fill-rule="nonzero"/>
	</g>
	<rect id="Icon Container" rx="7.500000" width="65.000000" height="65.000000" transform="translate(0.500000 0.500000)" stroke="#FFEACC" stroke-opacity="1.000000" stroke-width="1.000000"/>
</svg>
