<svg width="25.500000" height="17.000000" viewBox="0 0 25.5 17" fill="none" xmlns="http://www.w3.org/2000/svg" xmlns:xlink="http://www.w3.org/1999/xlink">
	<desc>
			Created with Pixso.
	</desc>
	<defs/>
	<path id="Vector (Stroke)" d="M0 1.06C0 0.47 0.47 0 1.06 0L24.43 0C25.02 0 25.5 0.47 25.5 1.06C25.5 1.64 25.02 2.12 24.43 2.12L1.06 2.12C0.47 2.12 0 1.64 0 1.06ZM0 8.5C0 7.91 0.47 7.43 1.06 7.43L24.43 7.43C25.02 7.43 25.5 7.91 25.5 8.5C25.5 9.08 25.02 9.56 24.43 9.56L1.06 9.56C0.47 9.56 0 9.08 0 8.5ZM11.68 15.93C11.68 15.35 12.16 14.87 12.75 14.87L24.43 14.87C25.02 14.87 25.5 15.35 25.5 15.93C25.5 16.52 25.02 17 24.43 17L12.75 17C12.16 17 11.68 16.52 11.68 15.93Z" fill="#262626" fill-opacity="1.000000" fill-rule="evenodd"/>
</svg>
