<svg width="48.000000" height="48.000000" viewBox="0 0 48 48" fill="none" xmlns="http://www.w3.org/2000/svg" xmlns:xlink="http://www.w3.org/1999/xlink">
	<desc>
			Created with Pixso.
	</desc>
	<defs>
		<clipPath id="clip109_36">
			<rect id="Icon" rx="0.000000" width="23.000000" height="23.000000" transform="translate(12.500000 12.500000)" fill="white" fill-opacity="0"/>
		</clipPath>
	</defs>
	<rect id="Icon Container" rx="5.500000" width="47.000000" height="47.000000" transform="translate(0.500000 0.500000)" fill="#FFF4E6" fill-opacity="1.000000"/>
	<g clip-path="url(#clip109_36)">
		<path id="Vector 449 (Stroke)" d="M26.61 13.59C26.91 13.76 27.06 14.11 26.97 14.44L24.98 21.75L32.25 21.75C32.54 21.75 32.81 21.92 32.93 22.2C33.05 22.47 33 22.79 32.79 23.01L22.29 34.26C22.06 34.51 21.68 34.57 21.38 34.4C21.08 34.23 20.93 33.88 21.02 33.55L23.01 26.25L15.75 26.25C15.45 26.25 15.18 26.07 15.06 25.79C14.94 25.52 14.99 25.2 15.2 24.98L25.7 13.73C25.93 13.48 26.31 13.42 26.61 13.59Z" fill="#262626" fill-opacity="1.000000" fill-rule="evenodd"/>
	</g>
</svg>
