<svg width="78.628906" height="21.250000" viewBox="0 0 78.6289 21.25" fill="none" xmlns="http://www.w3.org/2000/svg" xmlns:xlink="http://www.w3.org/1999/xlink">
	<desc>
			Created with Pixso.
	</desc>
	<defs/>
	<path id="Vector" d="M10.81 19.88C9.62 20.08 8.42 20.15 7.18 20.31L3.38 9.19L3.38 20.79C2.19 20.91 1.12 21.08 0 21.25L0 0L3.15 0L7.47 12.05L7.47 0L10.81 0L10.81 19.88ZM17.34 7.78C18.63 7.78 20.6 7.71 21.79 7.71L21.79 11.04C20.31 11.04 18.59 11.04 17.34 11.1L17.34 16.04C19.29 15.91 21.25 15.75 23.22 15.68L23.22 18.88L14.02 19.61L14.02 0L23.22 0L23.22 3.32L17.34 3.32L17.34 7.78ZM35.56 3.32L32.12 3.32L32.12 18.59C31 18.59 29.88 18.59 28.8 18.63L28.8 3.32L25.35 3.32L25.35 0L35.56 0L35.56 3.32ZM40.96 7.55L45.5 7.55L45.5 10.87L40.96 10.87L40.96 18.4L37.7 18.4L37.7 0L46.98 0L46.98 3.32L40.96 3.32L40.96 7.55ZM52.37 15.5C54.26 15.54 56.17 15.68 58.02 15.79L58.02 19.07C55.05 18.88 52.08 18.69 49.05 18.63L49.05 0L52.37 0L52.37 15.5ZM60.82 19.29C61.88 19.36 63 19.42 64.08 19.54L64.08 0L60.82 0L60.82 19.29ZM78.62 0L74.41 10.1L78.62 21.25C77.38 21.08 76.13 20.85 74.89 20.64L72.5 14.5L70.07 20.15C68.87 19.94 67.71 19.88 66.5 19.71L70.78 9.98L66.92 0L70.49 0L72.67 5.58L74.99 0L78.62 0L78.62 0Z" fill="#4C4C4D" fill-opacity="1.000000" fill-rule="nonzero"/>
</svg>
