<svg width="91.052734" height="24.402039" viewBox="0 0 91.0527 24.402" fill="none" xmlns="http://www.w3.org/2000/svg" xmlns:xlink="http://www.w3.org/1999/xlink">
	<desc>
			Created with Pixso.
	</desc>
	<defs/>
	<path id="Vector" d="M15.04 0.05L1.47 1.04C0.38 1.14 0 1.84 0 2.7L0 17.5C0 18.16 0.24 18.73 0.81 19.49L4.01 23.63C4.53 24.29 5 24.44 6.01 24.39L21.75 23.43C23.08 23.33 23.46 22.72 23.46 21.68L23.46 5.03C23.46 4.46 23.21 4.32 22.5 3.8L18.18 0.77C17.14 0 16.7 -0.09 15.04 0.05ZM6.33 4.75C5.06 4.84 4.77 4.86 4.04 4.27L2.19 2.81C1.99 2.63 2.09 2.39 2.56 2.34L15.59 1.38C16.68 1.28 17.27 1.67 17.69 2L19.93 3.6C20.03 3.64 20.27 3.93 19.98 3.93L6.51 4.74C6.45 4.74 6.39 4.75 6.33 4.75ZM66.85 5.44C66.85 6.3 66.15 7 65.28 7C64.41 7 63.71 6.3 63.71 5.44C63.71 4.56 64.41 3.86 65.28 3.86C66.15 3.86 66.85 4.56 66.85 5.44ZM31.82 10.07L31.82 20.38L29.2 20.38L29.2 5.24L31.56 5.24L39.07 15.52L39.25 15.52L39.25 5.24L41.87 5.24L41.87 20.38L39.51 20.38L32.01 10.07L31.82 10.07ZM4.85 21.54L4.85 7.4C4.85 6.78 5.05 6.49 5.62 6.44L21.09 5.53C21.61 5.48 21.85 5.82 21.85 6.44L21.85 20.48C21.85 21.1 21.75 21.62 20.89 21.66L6.09 22.52C5.23 22.57 4.85 22.3 4.85 21.54ZM57.28 8.98L57.28 6.09L59.9 6.09L59.9 8.98L62.39 8.98L62.39 11.05L59.9 11.05L59.9 16.69C59.9 17.83 60.4 18.33 61.5 18.33C61.87 18.33 62.08 18.3 62.39 18.27L62.39 20.3C62 20.38 61.5 20.43 61 20.43C58.33 20.43 57.28 19.55 57.28 17.31L57.28 11.05L55.44 11.05L55.44 8.98L57.28 8.98ZM19.04 9.07C19.46 9.02 19.56 8.58 19.46 8.16L16.2 8.34C15.72 8.39 15.33 8.78 15.43 9.29L16.67 9.44L16.67 15.97L11.81 8.58L8.28 8.82C7.62 8.87 7.37 9.49 7.47 9.91L8.66 10.01L8.66 19.35L7.79 19.59C7.47 19.69 7.37 20.16 7.47 20.35L10.75 20.16C11.94 20.16 11.94 19.3 11.94 19.3L10.46 18.97L10.46 11.9L15.12 19.22C15.69 19.93 15.89 20.17 16.65 20.17C17.14 20.17 17.71 19.98 18.32 19.65L18.32 9.21L19.04 9.07ZM54.89 14.64C54.89 18.38 52.76 20.61 49.3 20.61C45.84 20.61 43.74 18.38 43.71 14.64C43.71 10.92 45.86 8.66 49.3 8.66C52.76 8.66 54.89 10.92 54.89 14.64ZM79.37 14.64C79.37 18.38 77.25 20.61 73.78 20.61C70.29 20.61 68.19 18.38 68.19 14.64C68.19 10.92 70.34 8.66 73.78 8.66C77.25 8.66 79.37 10.92 79.37 14.64ZM83.54 20.38L80.92 20.38C80.92 20.38 80.92 8.9 80.89 8.9L83.44 8.9L83.44 10.74L83.62 10.74C84.17 9.44 85.33 8.66 87.06 8.66C89.63 8.66 91.05 10.2 91.05 12.95L91.05 20.38L88.42 20.38L88.42 13.57C88.42 11.83 87.69 10.95 86.09 10.95C84.54 10.95 83.54 12.01 83.54 13.7L83.54 20.38ZM66.59 20.38L63.97 20.38L63.97 8.9L66.59 8.9L66.59 20.38ZM46.41 14.64C46.41 17.05 47.46 18.43 49.3 18.43C51.14 18.43 52.19 17.05 52.19 14.64C52.19 12.25 51.14 10.85 49.3 10.85C47.46 10.85 46.41 12.25 46.41 14.64ZM70.9 14.64C70.9 17.05 71.95 18.43 73.78 18.43C75.59 18.43 76.64 17.05 76.67 14.64C76.67 12.25 75.59 10.85 73.78 10.85C71.95 10.85 70.9 12.25 70.9 14.64Z" fill="#4C4C4D" fill-opacity="1.000000" fill-rule="evenodd"/>
</svg>
