<svg width="99.193359" height="29.750000" viewBox="0 0 99.1934 29.75" fill="none" xmlns="http://www.w3.org/2000/svg" xmlns:xlink="http://www.w3.org/1999/xlink">
	<desc>
			Created with Pixso.
	</desc>
	<defs/>
	<path id="Vector" d="M14.87 0C6.66 0 0 6.65 0 14.87C0 23.09 6.66 29.75 14.87 29.75C23.09 29.75 29.75 23.09 29.75 14.87C29.75 6.66 23.09 0 14.87 0L14.87 0ZM21.69 21.45C21.43 21.89 20.85 22.02 20.42 21.76C16.92 19.62 12.53 19.14 7.35 20.32C6.85 20.44 6.35 20.12 6.24 19.62C6.12 19.13 6.44 18.63 6.94 18.51C12.6 17.22 17.46 17.78 21.38 20.17C21.82 20.44 21.96 21.01 21.69 21.45ZM23.51 17.4C23.18 17.94 22.46 18.12 21.92 17.78C17.92 15.32 11.82 14.61 7.09 16.05C6.48 16.23 5.83 15.89 5.65 15.27C5.46 14.66 5.81 14.01 6.42 13.83C11.82 12.19 18.54 12.98 23.13 15.8C23.68 16.14 23.85 16.85 23.51 17.4L23.51 17.4ZM23.67 13.18C18.87 10.33 10.96 10.07 6.39 11.46C5.65 11.68 4.87 11.27 4.65 10.53C4.43 9.8 4.84 9.02 5.58 8.8C10.83 7.2 19.57 7.51 25.09 10.79C25.75 11.18 25.97 12.03 25.58 12.69C25.18 13.36 24.33 13.57 23.67 13.18L23.67 13.18ZM40.47 13.73C37.9 13.11 37.44 12.68 37.44 11.78C37.44 10.93 38.24 10.35 39.44 10.35C40.6 10.35 41.75 10.79 42.95 11.69C42.98 11.71 43.03 11.73 43.08 11.72C43.12 11.71 43.16 11.69 43.19 11.65L44.44 9.88C44.49 9.81 44.48 9.71 44.41 9.65C42.98 8.5 41.36 7.94 39.48 7.94C36.7 7.94 34.77 9.61 34.77 11.99C34.77 14.54 36.44 15.45 39.33 16.15C41.78 16.71 42.2 17.19 42.2 18.03C42.2 18.97 41.36 19.56 40.01 19.56C38.51 19.56 37.29 19.05 35.92 17.87C35.88 17.84 35.84 17.83 35.8 17.83C35.75 17.83 35.71 17.85 35.68 17.89L34.27 19.56C34.21 19.63 34.22 19.73 34.29 19.79C35.88 21.21 37.84 21.96 39.95 21.96C42.94 21.96 44.87 20.33 44.87 17.8C44.88 15.67 43.6 14.49 40.47 13.73L40.47 13.73ZM51.63 11.19C50.34 11.19 49.27 11.7 48.4 12.75L48.4 11.57C48.4 11.48 48.32 11.4 48.23 11.4L45.93 11.4C45.84 11.4 45.76 11.48 45.76 11.57L45.76 24.65C45.76 24.74 45.84 24.82 45.93 24.82L48.23 24.82C48.32 24.82 48.4 24.74 48.4 24.65L48.4 20.52C49.27 21.5 50.34 21.98 51.63 21.98C54.04 21.98 56.48 20.13 56.48 16.59C56.48 13.05 54.04 11.19 51.63 11.19L51.63 11.19ZM53.8 16.59C53.8 18.39 52.69 19.65 51.1 19.65C49.53 19.65 48.34 18.34 48.34 16.59C48.34 14.84 49.53 13.53 51.1 13.53C52.66 13.53 53.8 14.81 53.8 16.59L53.8 16.59ZM62.72 11.19C59.62 11.19 57.19 13.58 57.19 16.63C57.19 19.64 59.6 22 62.68 22C65.79 22 68.23 19.62 68.23 16.59C68.23 13.56 65.81 11.19 62.72 11.19L62.72 11.19ZM62.72 19.67C61.07 19.67 59.83 18.34 59.83 16.59C59.83 14.82 61.03 13.55 62.68 13.55C64.34 13.55 65.59 14.87 65.59 16.63C65.59 18.39 64.38 19.67 62.72 19.67ZM74.85 11.4L72.31 11.4L72.31 8.82C72.31 8.72 72.24 8.65 72.15 8.65L69.85 8.65C69.75 8.65 69.68 8.72 69.68 8.82L69.68 11.4L68.57 11.4C68.48 11.4 68.41 11.48 68.41 11.57L68.41 13.55C68.41 13.64 68.48 13.72 68.57 13.72L69.68 13.72L69.68 18.83C69.68 20.9 70.71 21.95 72.74 21.95C73.56 21.95 74.25 21.78 74.89 21.41C74.94 21.38 74.98 21.32 74.98 21.26L74.98 19.38C74.98 19.32 74.95 19.27 74.9 19.24C74.85 19.21 74.78 19.21 74.73 19.23C74.29 19.45 73.86 19.56 73.38 19.56C72.65 19.56 72.31 19.22 72.31 18.47L72.31 13.72L74.85 13.72C74.94 13.72 75.01 13.64 75.01 13.55L75.01 11.57C75.02 11.48 74.94 11.41 74.85 11.41L74.85 11.4ZM83.66 11.41L83.66 11.1C83.66 10.16 84.02 9.74 84.83 9.74C85.3 9.74 85.69 9.84 86.12 9.98C86.18 10 86.23 9.99 86.27 9.96C86.32 9.93 86.34 9.88 86.34 9.82L86.34 7.89C86.34 7.81 86.3 7.75 86.22 7.72C85.77 7.59 85.19 7.45 84.31 7.45C82.19 7.45 81.07 8.65 81.07 10.91L81.07 11.39L79.96 11.39C79.87 11.39 79.79 11.47 79.79 11.56L79.79 13.55C79.79 13.64 79.87 13.72 79.96 13.72L81.07 13.72L81.07 21.61C81.07 21.7 81.14 21.77 81.23 21.77L83.53 21.77C83.63 21.77 83.7 21.7 83.7 21.61L83.7 13.72L85.85 13.72L89.14 21.61C88.77 22.43 88.4 22.6 87.9 22.6C87.49 22.6 87.06 22.48 86.63 22.24C86.59 22.22 86.54 22.21 86.5 22.23C86.45 22.24 86.41 22.27 86.4 22.32L85.62 24.03C85.58 24.11 85.61 24.2 85.69 24.25C86.5 24.69 87.24 24.87 88.14 24.87C89.84 24.87 90.78 24.08 91.61 21.95L95.6 11.64C95.62 11.59 95.61 11.53 95.58 11.49C95.55 11.44 95.5 11.41 95.44 11.41L93.05 11.41C92.97 11.41 92.91 11.46 92.89 11.53L90.43 18.53L87.75 11.52C87.72 11.46 87.66 11.41 87.59 11.41L83.66 11.41L83.66 11.41ZM78.55 11.4L76.25 11.4C76.16 11.4 76.08 11.48 76.08 11.57L76.08 21.61C76.08 21.7 76.16 21.77 76.25 21.77L78.55 21.77C78.64 21.77 78.72 21.7 78.72 21.61L78.72 11.57C78.72 11.48 78.65 11.4 78.55 11.4L78.55 11.4ZM77.41 6.84C76.5 6.84 75.76 7.57 75.76 8.48C75.76 9.4 76.5 10.13 77.41 10.13C78.33 10.13 79.06 9.4 79.06 8.48C79.06 7.57 78.32 6.84 77.41 6.84ZM97.56 14.63C96.65 14.63 95.94 13.9 95.94 13.01C95.94 12.12 96.66 11.38 97.57 11.38C98.48 11.38 99.19 12.12 99.19 13C99.19 13.89 98.47 14.63 97.56 14.63ZM97.57 11.55C96.74 11.55 96.11 12.2 96.11 13.01C96.11 13.82 96.74 14.47 97.56 14.47C98.39 14.47 99.02 13.81 99.02 13C99.02 12.2 98.39 11.55 97.57 11.55ZM97.93 13.17L98.39 13.81L98 13.81L97.59 13.22L97.23 13.22L97.23 13.81L96.91 13.81L96.91 12.11L97.67 12.11C98.06 12.11 98.32 12.31 98.32 12.65C98.33 12.93 98.16 13.1 97.93 13.17L97.93 13.17ZM97.66 12.4L97.23 12.4L97.23 12.94L97.66 12.94C97.87 12.94 97.99 12.84 97.99 12.67C97.99 12.5 97.87 12.4 97.66 12.4Z" fill="#4C4C4D" fill-opacity="1.000000" fill-rule="nonzero"/>
</svg>
