<svg width="67.433594" height="30.856323" viewBox="0 0 67.4336 30.8563" fill="none" xmlns="http://www.w3.org/2000/svg" xmlns:xlink="http://www.w3.org/1999/xlink">
	<desc>
			Created with Pixso.
	</desc>
	<defs/>
	<path id="Vector" d="M42.91 3.57L45.41 3.57C45.46 3.8 45.47 4.04 45.48 4.28L45.48 4.29C45.48 4.53 45.46 4.77 45.42 5L42.92 5L44.69 6.77C44.56 6.98 44.4 7.15 44.23 7.33C44.06 7.49 43.87 7.65 43.68 7.79L41.91 6.01L41.91 8.52C41.67 8.55 41.44 8.58 41.19 8.58L41.18 8.58C40.94 8.58 40.7 8.55 40.47 8.52L40.47 6.01L38.7 7.79C38.3 7.5 37.96 7.16 37.68 6.77L39.46 5L36.95 5C36.91 4.77 36.89 4.53 36.89 4.29C36.89 4.04 36.95 3.57 36.95 3.57L39.46 3.57L37.67 1.8C37.82 1.6 37.96 1.42 38.14 1.25C38.31 1.08 38.49 0.93 38.69 0.78L40.46 2.56L40.46 0.05C40.69 0.02 40.93 0 41.18 0L41.18 0C41.43 0 41.67 0.02 41.9 0.05L41.9 2.56L43.67 0.78C43.87 0.92 44.05 1.08 44.22 1.25C44.39 1.42 44.54 1.6 44.68 1.8L42.91 3.57ZM42.09 5.2C42.2 4.92 42.26 4.61 42.26 4.29C42.26 3.97 42.2 3.66 42.09 3.38C41.81 3.27 41.5 3.21 41.18 3.21C40.86 3.21 40.56 3.27 40.27 3.38C40.17 3.66 40.11 3.97 40.11 4.29L40.11 4.29C40.11 4.61 40.17 4.92 40.27 5.2C40.56 5.31 40.86 5.37 41.18 5.37C41.5 5.37 41.81 5.31 42.09 5.2ZM48.48 18.64C48.52 20.09 48.89 21.15 49.61 21.82C50.32 22.49 51.38 22.83 52.78 22.83C54 22.83 55.17 22.61 56.27 22.18C56.41 22.44 56.52 22.75 56.6 23.13C56.69 23.5 56.74 23.86 56.76 24.23C56.19 24.47 55.57 24.65 54.88 24.77C54.21 24.89 53.45 24.95 52.62 24.95C51.41 24.95 50.38 24.78 49.51 24.44C48.65 24.11 47.94 23.63 47.38 23.02C46.82 22.41 46.41 21.69 46.15 20.85C45.89 20.01 45.76 19.1 45.76 18.09C45.76 17.11 45.89 16.19 46.14 15.33C46.38 14.48 46.77 13.74 47.29 13.11C47.8 12.48 48.45 11.97 49.24 11.61C50.02 11.24 50.95 11.05 52.02 11.05C52.93 11.05 53.73 11.21 54.42 11.52C55.11 11.83 55.69 12.26 56.16 12.8C56.62 13.34 56.98 13.99 57.21 14.74C57.45 15.49 57.58 16.3 57.58 17.18C57.58 17.42 57.57 17.68 57.55 17.94C57.54 18.21 57.51 18.44 57.5 18.63L48.48 18.63L48.48 18.64ZM20.14 15.9C20.14 14.88 19.88 14.18 19.36 13.78C18.85 13.38 18.1 13.18 17.11 13.18C16.51 13.18 15.94 13.23 15.42 13.32C14.89 13.42 14.39 13.54 13.88 13.69C13.55 13.13 13.39 12.44 13.39 11.65C13.98 11.47 14.62 11.32 15.33 11.21C16.03 11.11 16.71 11.06 17.37 11.06C19.09 11.06 20.4 11.45 21.3 12.23C22.19 13.02 22.65 14.28 22.65 16L22.65 24.3C22.05 24.43 21.32 24.58 20.45 24.72C19.59 24.87 18.71 24.94 17.81 24.94C16.97 24.94 16.2 24.86 15.53 24.71C14.85 24.55 14.27 24.3 13.79 23.95C13.32 23.61 12.95 23.17 12.69 22.63C12.43 22.1 12.3 21.45 12.3 20.7C12.3 19.96 12.45 19.3 12.76 18.75C13.05 18.19 13.46 17.72 13.99 17.35Q14.76 16.79 15.77 16.53C16.44 16.35 17.15 16.25 17.9 16.25C18.45 16.25 18.9 16.26 19.25 16.29C19.6 16.31 19.9 16.35 20.15 16.38L20.15 15.9L20.14 15.9ZM25.44 11.38C25.61 11.34 25.79 11.32 25.97 11.3Q26.24 11.28 26.53 11.28C26.7 11.28 26.88 11.29 27.07 11.3C27.26 11.32 27.45 11.35 27.62 11.38C27.63 11.42 27.66 11.52 27.69 11.7C27.71 11.88 27.74 12.07 27.76 12.28C27.78 12.49 27.81 12.68 27.83 12.88C27.86 13.07 27.87 13.19 27.87 13.24C28.04 12.96 28.25 12.7 28.49 12.44C28.73 12.18 29.02 11.94 29.35 11.74C29.69 11.53 30.07 11.36 30.49 11.24C30.92 11.12 31.39 11.07 31.9 11.07C32.68 11.07 33.4 11.19 34.06 11.45C34.72 11.71 35.29 12.11 35.77 12.65C36.24 13.2 36.61 13.89 36.88 14.72C37.15 15.56 37.28 16.55 37.28 17.69C37.28 19.97 36.66 21.75 35.43 23.03C34.2 24.31 32.45 24.96 30.2 24.96C29.82 24.96 29.43 24.94 29.03 24.88C28.64 24.83 28.29 24.77 28 24.68L28 30.75C27.79 30.79 27.57 30.81 27.33 30.83C27.1 30.84 26.89 30.85 26.7 30.85C26.52 30.85 26.3 30.84 26.07 30.83C25.84 30.81 25.62 30.78 25.44 30.75L25.44 11.38L25.44 11.38ZM60.41 11.38C60.6 11.34 60.78 11.32 60.96 11.3C61.13 11.29 61.3 11.28 61.5 11.28C61.68 11.28 61.88 11.29 62.06 11.3C62.25 11.32 62.43 11.35 62.58 11.38C62.63 11.64 62.68 11.97 62.74 12.4C62.79 12.82 62.81 13.18 62.81 13.47C63.17 12.88 63.65 12.38 64.25 11.94C64.84 11.51 65.6 11.3 66.53 11.3C66.68 11.3 66.82 11.3 66.96 11.31C67.11 11.32 67.23 11.33 67.33 11.35C67.37 11.5 67.39 11.67 67.41 11.84C67.42 12.01 67.43 12.19 67.43 12.38C67.43 12.59 67.41 12.81 67.39 13.03C67.37 13.25 67.33 13.47 67.3 13.68C67.16 13.64 67.02 13.63 66.88 13.63L66.53 13.63C66.07 13.63 65.62 13.69 65.19 13.82C64.77 13.95 64.39 14.18 64.05 14.51C63.72 14.83 63.45 15.28 63.25 15.85C63.05 16.42 62.95 17.16 62.95 18.05L62.95 24.65C62.76 24.68 62.55 24.7 62.32 24.72C62.09 24.73 61.87 24.74 61.68 24.74C61.5 24.74 61.28 24.73 61.05 24.72C60.82 24.7 60.6 24.68 60.39 24.65L60.39 11.38L60.41 11.38ZM0 24.28L6.98 13.42L0.82 13.42C0.77 13.11 0.75 12.76 0.75 12.38C0.75 12.02 0.77 11.68 0.82 11.38L10.78 11.38L10.91 11.71L3.88 22.6L10.47 22.6C10.52 22.94 10.54 23.3 10.54 23.65C10.54 24 10.52 24.33 10.47 24.64L0.12 24.64L0 24.28ZM40.47 13.39L38.79 13.39C38.75 13.25 38.73 13.09 38.71 12.91C38.7 12.73 38.69 12.55 38.69 12.38C38.69 12.21 38.7 12.03 38.71 11.85C38.73 11.68 38.75 11.51 38.79 11.38L42.98 11.38L42.98 24.65C42.79 24.68 42.58 24.7 42.35 24.72C42.12 24.73 41.9 24.74 41.71 24.74C41.54 24.74 41.34 24.73 41.1 24.72C40.87 24.7 40.65 24.68 40.47 24.65L40.47 13.39ZM55.05 16.73C55.05 16.24 54.99 15.78 54.86 15.34C54.73 14.9 54.54 14.52 54.29 14.19C54.04 13.87 53.73 13.61 53.34 13.4C52.95 13.2 52.49 13.11 51.96 13.11C50.91 13.11 50.1 13.43 49.53 14.06C48.98 14.7 48.63 15.59 48.51 16.73L55.05 16.73ZM28.01 22.47C28.33 22.59 28.67 22.68 29.01 22.73C29.35 22.78 29.8 22.81 30.36 22.81C30.98 22.81 31.55 22.71 32.07 22.51C32.58 22.31 33.03 22 33.4 21.59C33.77 21.17 34.06 20.65 34.28 20.03C34.49 19.4 34.6 18.65 34.6 17.79Q34.6 15.73 33.84 14.51C33.33 13.7 32.5 13.29 31.34 13.29C30.91 13.29 30.5 13.37 30.1 13.52C29.7 13.68 29.35 13.91 29.04 14.22C28.73 14.54 28.48 14.92 28.29 15.4C28.09 15.88 28.01 16.44 28.01 17.09L28.01 22.47ZM20.14 18.41C19.88 18.37 19.55 18.34 19.16 18.31C18.76 18.27 18.43 18.25 18.15 18.25C17.08 18.25 16.26 18.45 15.71 18.85C15.15 19.24 14.86 19.85 14.86 20.66C14.86 21.17 14.96 21.58 15.15 21.87C15.33 22.16 15.57 22.39 15.86 22.54C16.14 22.7 16.45 22.8 16.8 22.83C17.14 22.87 17.47 22.88 17.79 22.88C18.18 22.88 18.59 22.86 19.01 22.81C19.44 22.77 19.81 22.71 20.14 22.62L20.14 18.41Z" fill="#4C4C4D" fill-opacity="1.000000" fill-rule="evenodd"/>
</svg>
