<svg width="69.344727" height="15.583313" viewBox="0 0 69.3447 15.5833" fill="none" xmlns="http://www.w3.org/2000/svg" xmlns:xlink="http://www.w3.org/1999/xlink">
	<desc>
			Created with Pixso.
	</desc>
	<defs/>
	<path id="Vector" d="M56.45 4.67C56.72 5.13 56.81 5.65 56.83 6.23L56.87 7.01L56.87 12.46L56.91 13.24C56.99 14.52 57.93 15.46 59.21 15.54L59.99 15.58L59.99 7.01L60.03 6.23C60.06 5.65 60.14 5.12 60.41 4.66C60.69 4.19 61.08 3.8 61.56 3.52C62.03 3.25 62.57 3.11 63.11 3.11C63.66 3.11 64.2 3.26 64.67 3.53C65.14 3.8 65.53 4.2 65.81 4.67C66.07 5.13 66.15 5.66 66.18 6.23L66.22 7.01L66.22 12.46L66.26 13.24C66.34 14.52 67.27 15.47 68.56 15.54L69.34 15.58L69.34 6.23C69.34 4.58 68.68 2.99 67.51 1.82C66.35 0.65 64.76 0 63.11 0C62.22 0 61.35 0.18 60.54 0.55C59.74 0.91 59.02 1.44 58.43 2.11C57.85 1.44 57.13 0.91 56.32 0.55C55.52 0.18 54.64 0 53.76 0C52.46 0 51.26 0.39 50.27 1.07C49.66 0.39 48.3 0 47.52 0L47.52 15.58L48.3 15.54C49.61 15.45 50.55 14.54 50.6 13.24L50.64 12.46L50.64 7.01L50.68 6.23C50.71 5.64 50.79 5.13 51.06 4.66C51.33 4.19 51.73 3.8 52.2 3.53C52.67 3.26 53.21 3.11 53.76 3.11C54.3 3.11 54.84 3.26 55.31 3.53C55.79 3.8 56.18 4.19 56.45 4.67ZM3.11 15.54L3.89 15.58L15.58 15.58L15.54 14.8C15.43 13.52 14.53 12.58 13.24 12.5L12.46 12.46L5.45 12.46L14.8 3.11L14.76 2.33C14.7 1.04 13.75 0.11 12.46 0.03L11.68 0L0 0L0.03 0.78C0.14 2.04 1.06 3 2.33 3.07L3.11 3.11L10.12 3.11L0.77 12.46L0.81 13.24C0.89 14.53 1.82 15.46 3.11 15.54L3.11 15.54ZM44.46 2.28C45.19 3 45.76 3.86 46.15 4.8C46.54 5.75 46.75 6.76 46.75 7.79C46.75 8.81 46.54 9.82 46.15 10.77C45.76 11.71 45.19 12.57 44.46 13.3C43 14.76 41.02 15.58 38.95 15.58C36.89 15.58 34.9 14.76 33.44 13.3C30.4 10.25 30.4 5.32 33.44 2.28C34.16 1.55 35.02 0.98 35.97 0.59C36.91 0.2 37.92 0 38.95 0C39.97 -0.01 40.99 0.2 41.93 0.59C42.88 0.98 43.74 1.55 44.46 2.28L44.46 2.28ZM42.26 4.48C43.13 5.36 43.63 6.55 43.63 7.79C43.63 9.03 43.13 10.22 42.26 11.1C41.38 11.97 40.19 12.46 38.95 12.46C37.71 12.46 36.52 11.97 35.65 11.1C34.77 10.22 34.28 9.03 34.28 7.79C34.28 6.55 34.77 5.36 35.65 4.48C36.52 3.61 37.71 3.11 38.95 3.11C40.19 3.11 41.38 3.61 42.26 4.48ZM22.6 0C23.62 0 24.63 0.2 25.58 0.59C26.52 0.98 27.38 1.55 28.1 2.28C31.14 5.32 31.14 10.25 28.1 13.3C26.64 14.76 24.66 15.58 22.59 15.58C20.52 15.58 18.54 14.76 17.08 13.3C14.04 10.25 14.04 5.32 17.08 2.28C17.8 1.55 18.66 0.98 19.61 0.59C20.55 0.2 21.56 0 22.59 0L22.6 0ZM25.9 4.48C26.77 5.36 27.27 6.55 27.27 7.79C27.27 9.03 26.77 10.22 25.9 11.09C25.02 11.97 23.83 12.46 22.59 12.46C21.35 12.46 20.16 11.97 19.28 11.09C18.41 10.22 17.92 9.03 17.92 7.79C17.92 6.55 18.41 5.36 19.28 4.48C20.16 3.61 21.35 3.11 22.59 3.11C23.83 3.11 25.02 3.61 25.9 4.48L25.9 4.48Z" fill="#4C4C4D" fill-opacity="1.000000" fill-rule="evenodd"/>
</svg>
