<svg width="52.000000" height="52.000000" viewBox="0 0 52 52" fill="none" xmlns="http://www.w3.org/2000/svg" xmlns:xlink="http://www.w3.org/1999/xlink">
	<desc>
			Created with Pixso.
	</desc>
	<defs>
		<clipPath id="clip29_873">
			<rect id="Icon" rx="0.000000" width="23.000000" height="23.000000" transform="translate(14.500000 14.500000)" fill="white" fill-opacity="0"/>
		</clipPath>
	</defs>
	<rect id="Button" rx="7.500000" width="51.000000" height="51.000000" transform="translate(0.500000 0.500000)" fill="#F7F7F8" fill-opacity="1.000000"/>
	<rect id="Icon" rx="0.000000" width="23.000000" height="23.000000" transform="translate(14.500000 14.500000)" fill="#FFFFFF" fill-opacity="0"/>
	<g clip-path="url(#clip29_873)">
		<path id="Vector" d="M36.22 14L15.77 14C14.79 14 14 14.77 14 15.72L14 36.26C14 37.22 14.79 38 15.77 38L36.22 38C37.2 38 38 37.22 38 36.27L38 15.72C38 14.77 37.2 14 36.22 14ZM21.12 34.45L17.55 34.45L17.55 22.99L21.12 22.99L21.12 34.45ZM19.33 21.43C18.19 21.43 17.27 20.51 17.27 19.37C17.27 18.23 18.19 17.3 19.33 17.3C20.47 17.3 21.4 18.23 21.4 19.37C21.4 20.5 20.47 21.43 19.33 21.43ZM34.45 34.45L30.89 34.45L30.89 28.88C30.89 27.55 30.87 25.84 29.04 25.84C27.19 25.84 26.9 27.29 26.9 28.78L26.9 34.45L23.35 34.45L23.35 22.99L26.76 22.99L26.76 24.56L26.81 24.56C27.28 23.66 28.45 22.7 30.18 22.7C33.78 22.7 34.45 25.08 34.45 28.16L34.45 34.45Z" fill="#333333" fill-opacity="1.000000" fill-rule="nonzero"/>
	</g>
	<rect id="Button" rx="7.500000" width="51.000000" height="51.000000" transform="translate(0.500000 0.500000)" stroke="#F1F1F3" stroke-opacity="1.000000" stroke-width="1.000000"/>
</svg>
