<svg width="52.000000" height="52.000000" viewBox="0 0 52 52" fill="none" xmlns="http://www.w3.org/2000/svg" xmlns:xlink="http://www.w3.org/1999/xlink">
	<desc>
			Created with Pixso.
	</desc>
	<defs>
		<clipPath id="clip29_870">
			<rect id="Icon" rx="0.000000" width="23.000000" height="23.000000" transform="translate(14.500000 14.500000)" fill="white" fill-opacity="0"/>
		</clipPath>
	</defs>
	<rect id="Button" rx="7.500000" width="51.000000" height="51.000000" transform="translate(0.500000 0.500000)" fill="#F7F7F8" fill-opacity="1.000000"/>
	<rect id="Icon" rx="0.000000" width="23.000000" height="23.000000" transform="translate(14.500000 14.500000)" fill="#FFFFFF" fill-opacity="0"/>
	<g clip-path="url(#clip29_870)">
		<path id="Vector" d="M21.54 35.75C30.6 35.75 35.55 28.24 35.55 21.74C35.55 21.53 35.55 21.31 35.54 21.1C36.5 20.4 37.33 19.54 38 18.55C37.1 18.95 36.14 19.21 35.17 19.32C36.2 18.71 36.97 17.74 37.33 16.6C36.37 17.17 35.31 17.58 34.21 17.8C33.47 17.01 32.48 16.48 31.41 16.31C30.35 16.13 29.25 16.32 28.29 16.83C27.34 17.34 26.58 18.15 26.13 19.14C25.68 20.12 25.57 21.23 25.81 22.29C23.86 22.19 21.94 21.68 20.2 20.79C18.45 19.91 16.91 18.66 15.67 17.14C15.04 18.23 14.85 19.51 15.13 20.73C15.41 21.95 16.15 23.02 17.19 23.71C16.41 23.69 15.65 23.48 14.96 23.1L14.96 23.16C14.96 24.3 15.35 25.4 16.07 26.28C16.79 27.16 17.8 27.77 18.91 27.99C18.19 28.19 17.43 28.22 16.69 28.07C17 29.05 17.62 29.91 18.44 30.52C19.26 31.13 20.26 31.48 21.29 31.5C19.54 32.87 17.39 33.61 15.17 33.61C14.78 33.6 14.39 33.58 14 33.53C16.25 34.98 18.87 35.75 21.54 35.75Z" fill="#333333" fill-opacity="1.000000" fill-rule="nonzero"/>
	</g>
	<rect id="Button" rx="7.500000" width="51.000000" height="51.000000" transform="translate(0.500000 0.500000)" stroke="#F1F1F3" stroke-opacity="1.000000" stroke-width="1.000000"/>
</svg>
